<mxfile host="65bd71144e">
    <diagram id="x-srWhqyRwXltMXBsB6Q" name="Page-1">
        <mxGraphModel dx="1468" dy="850" grid="1" gridSize="10" guides="1" tooltips="1" connect="1" arrows="1" fold="1" page="1" pageScale="1" pageWidth="1654" pageHeight="1169" math="0" shadow="0">
            <root>
                <mxCell id="0"/>
                <mxCell id="1" parent="0"/>
                <mxCell id="3" value="" style="rounded=1;whiteSpace=wrap;html=1;" parent="1" vertex="1">
                    <mxGeometry x="590" y="240" width="458" height="730" as="geometry"/>
                </mxCell>
                <mxCell id="4" value="" style="rounded=0;whiteSpace=wrap;html=1;" parent="1" vertex="1">
                    <mxGeometry x="662" y="400" width="320" height="60" as="geometry"/>
                </mxCell>
                <mxCell id="6" value="Update" style="rounded=1;whiteSpace=wrap;html=1;fontSize=25;labelBorderColor=none;" parent="1" vertex="1">
                    <mxGeometry x="658" y="860" width="120" height="60" as="geometry"/>
                </mxCell>
                <mxCell id="7" value="Name" style="text;html=1;strokeColor=none;fillColor=none;align=right;verticalAlign=middle;whiteSpace=wrap;rounded=0;fontSize=26;gradientColor=none;labelPosition=left;verticalLabelPosition=middle;" parent="1" vertex="1">
                    <mxGeometry x="735" y="360" width="220" height="30" as="geometry"/>
                </mxCell>
                <mxCell id="10" value="MY ACCOUNT" style="text;html=1;strokeColor=none;fillColor=none;align=center;verticalAlign=middle;whiteSpace=wrap;rounded=0;fontSize=33;fontStyle=1" parent="1" vertex="1">
                    <mxGeometry x="646" y="290" width="362.5" height="30" as="geometry"/>
                </mxCell>
                <mxCell id="11" value="Delete" style="rounded=1;whiteSpace=wrap;html=1;fontSize=25;labelBorderColor=none;" parent="1" vertex="1">
                    <mxGeometry x="861" y="860" width="120" height="60" as="geometry"/>
                </mxCell>
                <mxCell id="12" value="" style="rounded=0;whiteSpace=wrap;html=1;" parent="1" vertex="1">
                    <mxGeometry x="659.5" y="525" width="320" height="60" as="geometry"/>
                </mxCell>
                <mxCell id="13" value="Email" style="text;html=1;strokeColor=none;fillColor=none;align=right;verticalAlign=middle;whiteSpace=wrap;rounded=0;fontSize=26;gradientColor=none;labelPosition=left;verticalLabelPosition=middle;" parent="1" vertex="1">
                    <mxGeometry x="732.5" y="485" width="220" height="30" as="geometry"/>
                </mxCell>
                <mxCell id="17" value="" style="rounded=0;whiteSpace=wrap;html=1;" parent="1" vertex="1">
                    <mxGeometry x="662" y="650" width="323" height="60" as="geometry"/>
                </mxCell>
                <mxCell id="19" value="Password" style="text;html=1;strokeColor=none;fillColor=none;align=right;verticalAlign=middle;whiteSpace=wrap;rounded=0;fontSize=26;gradientColor=none;labelPosition=left;verticalLabelPosition=middle;" parent="1" vertex="1">
                    <mxGeometry x="783" y="610" width="220" height="30" as="geometry"/>
                </mxCell>
                <mxCell id="26" value="" style="rounded=0;whiteSpace=wrap;html=1;" parent="1" vertex="1">
                    <mxGeometry x="659" y="770" width="323" height="60" as="geometry"/>
                </mxCell>
                <mxCell id="27" value="CPF" style="text;html=1;strokeColor=none;fillColor=none;align=right;verticalAlign=middle;whiteSpace=wrap;rounded=0;fontSize=26;gradientColor=none;labelPosition=left;verticalLabelPosition=middle;" parent="1" vertex="1">
                    <mxGeometry x="711" y="730" width="220" height="30" as="geometry"/>
                </mxCell>
            </root>
        </mxGraphModel>
    </diagram>
</mxfile>